<mxfile host="app.diagrams.net" modified="2023-12-29T04:32:21.957Z" agent="Mozilla/5.0 (Windows NT 10.0; Win64; x64) AppleWebKit/537.36 (KHTML, like Gecko) Chrome/120.0.0.0 Safari/537.36 Edg/120.0.0.0" etag="7Jw-WxY9XcM0Z2ajyKd_" version="22.1.15" type="github">
  <diagram name="第 1 页" id="Pc2Y3xLQnUcVP0rlBtkb">
    <mxGraphModel dx="1102" dy="653" grid="1" gridSize="10" guides="1" tooltips="1" connect="1" arrows="1" fold="1" page="1" pageScale="1" pageWidth="827" pageHeight="1169" math="0" shadow="0">
      <root>
        <mxCell id="0" />
        <mxCell id="1" parent="0" />
        <mxCell id="l93nlvmvGtReNhgtbC6s-1" value="agent" style="rounded=0;whiteSpace=wrap;html=1;" vertex="1" parent="1">
          <mxGeometry x="310" y="20" width="120" height="60" as="geometry" />
        </mxCell>
        <mxCell id="l93nlvmvGtReNhgtbC6s-2" value="&lt;p style=&quot;margin: 0px; padding: 0px; color: rgb(23, 43, 77); font-family: -apple-system, BlinkMacSystemFont, &amp;quot;Segoe UI&amp;quot;, Roboto, Oxygen, Ubuntu, &amp;quot;Fira Sans&amp;quot;, &amp;quot;Droid Sans&amp;quot;, &amp;quot;Helvetica Neue&amp;quot;, sans-serif; font-size: 14px; text-align: left; background-color: rgb(255, 255, 255);&quot;&gt;通过host_id查询vni 以及subnet_id,port_id&lt;/p&gt;&lt;p style=&quot;margin: 0px; padding: 0px; color: rgb(23, 43, 77); font-family: -apple-system, BlinkMacSystemFont, &amp;quot;Segoe UI&amp;quot;, Roboto, Oxygen, Ubuntu, &amp;quot;Fira Sans&amp;quot;, &amp;quot;Droid Sans&amp;quot;, &amp;quot;Helvetica Neue&amp;quot;, sans-serif; font-size: 14px; text-align: left; background-color: rgb(255, 255, 255);&quot;&gt;/tc/&lt;span style=&quot;color: rgb(68, 68, 68);&quot;&gt;agents&lt;/span&gt;&lt;span style=&quot;color: rgb(188, 96, 96);&quot; class=&quot;hljs-regexp&quot;&gt;/access/&lt;/span&gt;&lt;span style=&quot;color: rgb(68, 68, 68);&quot;&gt;${host}&lt;/span&gt;&lt;span style=&quot;color: rgb(188, 96, 96);&quot; class=&quot;hljs-regexp&quot;&gt;/networks/&lt;/span&gt;&lt;span style=&quot;color: rgb(68, 68, 68);&quot;&gt;{vni}&lt;/span&gt;&lt;/p&gt;&lt;p style=&quot;margin: 0px; padding: 0px; color: rgb(23, 43, 77); font-family: -apple-system, BlinkMacSystemFont, &amp;quot;Segoe UI&amp;quot;, Roboto, Oxygen, Ubuntu, &amp;quot;Fira Sans&amp;quot;, &amp;quot;Droid Sans&amp;quot;, &amp;quot;Helvetica Neue&amp;quot;, sans-serif; font-size: 14px; text-align: left; background-color: rgb(255, 255, 255);&quot;&gt;/tc/&lt;span style=&quot;border-color: var(--border-color); color: rgb(68, 68, 68);&quot;&gt;agents&lt;/span&gt;&lt;span style=&quot;border-color: var(--border-color); color: rgb(188, 96, 96);&quot; class=&quot;hljs-regexp&quot;&gt;/access/&lt;/span&gt;&lt;span style=&quot;border-color: var(--border-color); color: rgb(68, 68, 68);&quot;&gt;${host}&lt;/span&gt;&lt;span style=&quot;border-color: var(--border-color); color: rgb(188, 96, 96);&quot; class=&quot;hljs-regexp&quot;&gt;/networks/&lt;/span&gt;&lt;span style=&quot;border-color: var(--border-color); color: rgb(68, 68, 68);&quot;&gt;{vni}&lt;/span&gt;&lt;span style=&quot;border-color: var(--border-color); color: rgb(188, 96, 96);&quot; class=&quot;hljs-regexp&quot;&gt;/subnets/&lt;/span&gt;&lt;span style=&quot;border-color: var(--border-color); color: rgb(68, 68, 68);&quot;&gt;{subnet_id}&lt;/span&gt;&lt;span style=&quot;color: rgb(68, 68, 68);&quot;&gt;&lt;br&gt;&lt;/span&gt;&lt;/p&gt;&lt;p style=&quot;margin: 0px; padding: 0px; color: rgb(23, 43, 77); font-family: -apple-system, BlinkMacSystemFont, &amp;quot;Segoe UI&amp;quot;, Roboto, Oxygen, Ubuntu, &amp;quot;Fira Sans&amp;quot;, &amp;quot;Droid Sans&amp;quot;, &amp;quot;Helvetica Neue&amp;quot;, sans-serif; font-size: 14px; text-align: left; background-color: rgb(255, 255, 255);&quot;&gt;&lt;span style=&quot;border-color: var(--border-color); color: rgb(68, 68, 68);&quot;&gt;/tc/&lt;span style=&quot;border-color: var(--border-color);&quot;&gt;agents&lt;/span&gt;&lt;span style=&quot;border-color: var(--border-color); color: rgb(188, 96, 96);&quot; class=&quot;hljs-regexp&quot;&gt;/access/&lt;/span&gt;&lt;span style=&quot;border-color: var(--border-color);&quot;&gt;${host}&lt;/span&gt;&lt;span style=&quot;border-color: var(--border-color); color: rgb(188, 96, 96);&quot; class=&quot;hljs-regexp&quot;&gt;/networks/&lt;/span&gt;&lt;span style=&quot;border-color: var(--border-color);&quot;&gt;{vni}&lt;/span&gt;&lt;span style=&quot;border-color: var(--border-color); color: rgb(188, 96, 96);&quot; class=&quot;hljs-regexp&quot;&gt;/ports/&lt;/span&gt;&lt;span style=&quot;border-color: var(--border-color);&quot;&gt;{port_id}&lt;/span&gt;&lt;/span&gt;&lt;/p&gt;" style="text;html=1;strokeColor=none;fillColor=none;align=center;verticalAlign=middle;whiteSpace=wrap;rounded=0;" vertex="1" parent="1">
          <mxGeometry x="450" y="5" width="400" height="90" as="geometry" />
        </mxCell>
        <mxCell id="l93nlvmvGtReNhgtbC6s-5" value="" style="endArrow=classic;html=1;rounded=0;entryX=0.096;entryY=1.133;entryDx=0;entryDy=0;entryPerimeter=0;dashed=1;exitX=0.5;exitY=0;exitDx=0;exitDy=0;" edge="1" parent="1" source="l93nlvmvGtReNhgtbC6s-17" target="l93nlvmvGtReNhgtbC6s-16">
          <mxGeometry width="50" height="50" relative="1" as="geometry">
            <mxPoint x="60" y="330" as="sourcePoint" />
            <mxPoint x="142.68000000000006" y="270.24" as="targetPoint" />
          </mxGeometry>
        </mxCell>
        <mxCell id="l93nlvmvGtReNhgtbC6s-13" value="vpc/networkManager" style="swimlane;fontStyle=1;align=center;verticalAlign=top;childLayout=stackLayout;horizontal=1;startSize=26;horizontalStack=0;resizeParent=1;resizeParentMax=0;resizeLast=0;collapsible=1;marginBottom=0;whiteSpace=wrap;html=1;" vertex="1" parent="1">
          <mxGeometry x="320" y="190" width="160" height="86" as="geometry" />
        </mxCell>
        <mxCell id="l93nlvmvGtReNhgtbC6s-14" value="+ vni" style="text;strokeColor=none;fillColor=none;align=left;verticalAlign=top;spacingLeft=4;spacingRight=4;overflow=hidden;rotatable=0;points=[[0,0.5],[1,0.5]];portConstraint=eastwest;whiteSpace=wrap;html=1;" vertex="1" parent="l93nlvmvGtReNhgtbC6s-13">
          <mxGeometry y="26" width="160" height="26" as="geometry" />
        </mxCell>
        <mxCell id="l93nlvmvGtReNhgtbC6s-15" value="" style="line;strokeWidth=1;fillColor=none;align=left;verticalAlign=middle;spacingTop=-1;spacingLeft=3;spacingRight=3;rotatable=0;labelPosition=right;points=[];portConstraint=eastwest;strokeColor=inherit;" vertex="1" parent="l93nlvmvGtReNhgtbC6s-13">
          <mxGeometry y="52" width="160" height="8" as="geometry" />
        </mxCell>
        <mxCell id="l93nlvmvGtReNhgtbC6s-16" value="+ method(type): type" style="text;strokeColor=none;fillColor=none;align=left;verticalAlign=top;spacingLeft=4;spacingRight=4;overflow=hidden;rotatable=0;points=[[0,0.5],[1,0.5]];portConstraint=eastwest;whiteSpace=wrap;html=1;" vertex="1" parent="l93nlvmvGtReNhgtbC6s-13">
          <mxGeometry y="60" width="160" height="26" as="geometry" />
        </mxCell>
        <mxCell id="l93nlvmvGtReNhgtbC6s-17" value="subnetManager" style="swimlane;fontStyle=1;align=center;verticalAlign=top;childLayout=stackLayout;horizontal=1;startSize=26;horizontalStack=0;resizeParent=1;resizeParentMax=0;resizeLast=0;collapsible=1;marginBottom=0;whiteSpace=wrap;html=1;" vertex="1" parent="1">
          <mxGeometry y="330" width="160" height="86" as="geometry" />
        </mxCell>
        <mxCell id="l93nlvmvGtReNhgtbC6s-18" value="+ subnet_id" style="text;strokeColor=none;fillColor=none;align=left;verticalAlign=top;spacingLeft=4;spacingRight=4;overflow=hidden;rotatable=0;points=[[0,0.5],[1,0.5]];portConstraint=eastwest;whiteSpace=wrap;html=1;" vertex="1" parent="l93nlvmvGtReNhgtbC6s-17">
          <mxGeometry y="26" width="160" height="26" as="geometry" />
        </mxCell>
        <mxCell id="l93nlvmvGtReNhgtbC6s-19" value="" style="line;strokeWidth=1;fillColor=none;align=left;verticalAlign=middle;spacingTop=-1;spacingLeft=3;spacingRight=3;rotatable=0;labelPosition=right;points=[];portConstraint=eastwest;strokeColor=inherit;" vertex="1" parent="l93nlvmvGtReNhgtbC6s-17">
          <mxGeometry y="52" width="160" height="8" as="geometry" />
        </mxCell>
        <mxCell id="l93nlvmvGtReNhgtbC6s-20" value="+ method(type): type" style="text;strokeColor=none;fillColor=none;align=left;verticalAlign=top;spacingLeft=4;spacingRight=4;overflow=hidden;rotatable=0;points=[[0,0.5],[1,0.5]];portConstraint=eastwest;whiteSpace=wrap;html=1;" vertex="1" parent="l93nlvmvGtReNhgtbC6s-17">
          <mxGeometry y="60" width="160" height="26" as="geometry" />
        </mxCell>
        <mxCell id="l93nlvmvGtReNhgtbC6s-22" value="portManager" style="swimlane;fontStyle=1;align=center;verticalAlign=top;childLayout=stackLayout;horizontal=1;startSize=26;horizontalStack=0;resizeParent=1;resizeParentMax=0;resizeLast=0;collapsible=1;marginBottom=0;whiteSpace=wrap;html=1;" vertex="1" parent="1">
          <mxGeometry x="250" y="330" width="160" height="104" as="geometry" />
        </mxCell>
        <mxCell id="l93nlvmvGtReNhgtbC6s-23" value="+ port_id&lt;br&gt;sgid,qos_id" style="text;strokeColor=none;fillColor=none;align=left;verticalAlign=top;spacingLeft=4;spacingRight=4;overflow=hidden;rotatable=0;points=[[0,0.5],[1,0.5]];portConstraint=eastwest;whiteSpace=wrap;html=1;" vertex="1" parent="l93nlvmvGtReNhgtbC6s-22">
          <mxGeometry y="26" width="160" height="44" as="geometry" />
        </mxCell>
        <mxCell id="l93nlvmvGtReNhgtbC6s-24" value="" style="line;strokeWidth=1;fillColor=none;align=left;verticalAlign=middle;spacingTop=-1;spacingLeft=3;spacingRight=3;rotatable=0;labelPosition=right;points=[];portConstraint=eastwest;strokeColor=inherit;" vertex="1" parent="l93nlvmvGtReNhgtbC6s-22">
          <mxGeometry y="70" width="160" height="8" as="geometry" />
        </mxCell>
        <mxCell id="l93nlvmvGtReNhgtbC6s-25" value="+ method(type): type" style="text;strokeColor=none;fillColor=none;align=left;verticalAlign=top;spacingLeft=4;spacingRight=4;overflow=hidden;rotatable=0;points=[[0,0.5],[1,0.5]];portConstraint=eastwest;whiteSpace=wrap;html=1;" vertex="1" parent="l93nlvmvGtReNhgtbC6s-22">
          <mxGeometry y="78" width="160" height="26" as="geometry" />
        </mxCell>
        <mxCell id="l93nlvmvGtReNhgtbC6s-26" value="" style="endArrow=classic;html=1;rounded=0;entryX=0.231;entryY=1.168;entryDx=0;entryDy=0;entryPerimeter=0;dashed=1;exitX=0.5;exitY=0;exitDx=0;exitDy=0;" edge="1" parent="1" source="l93nlvmvGtReNhgtbC6s-22" target="l93nlvmvGtReNhgtbC6s-16">
          <mxGeometry width="50" height="50" relative="1" as="geometry">
            <mxPoint x="70" y="340" as="sourcePoint" />
            <mxPoint x="152.68000000000006" y="280.24" as="targetPoint" />
          </mxGeometry>
        </mxCell>
        <mxCell id="l93nlvmvGtReNhgtbC6s-27" value="qosManager" style="swimlane;fontStyle=1;align=center;verticalAlign=top;childLayout=stackLayout;horizontal=1;startSize=26;horizontalStack=0;resizeParent=1;resizeParentMax=0;resizeLast=0;collapsible=1;marginBottom=0;whiteSpace=wrap;html=1;" vertex="1" parent="1">
          <mxGeometry x="180" y="632" width="160" height="86" as="geometry" />
        </mxCell>
        <mxCell id="l93nlvmvGtReNhgtbC6s-28" value="+ qos_id" style="text;strokeColor=none;fillColor=none;align=left;verticalAlign=top;spacingLeft=4;spacingRight=4;overflow=hidden;rotatable=0;points=[[0,0.5],[1,0.5]];portConstraint=eastwest;whiteSpace=wrap;html=1;" vertex="1" parent="l93nlvmvGtReNhgtbC6s-27">
          <mxGeometry y="26" width="160" height="26" as="geometry" />
        </mxCell>
        <mxCell id="l93nlvmvGtReNhgtbC6s-29" value="" style="line;strokeWidth=1;fillColor=none;align=left;verticalAlign=middle;spacingTop=-1;spacingLeft=3;spacingRight=3;rotatable=0;labelPosition=right;points=[];portConstraint=eastwest;strokeColor=inherit;" vertex="1" parent="l93nlvmvGtReNhgtbC6s-27">
          <mxGeometry y="52" width="160" height="8" as="geometry" />
        </mxCell>
        <mxCell id="l93nlvmvGtReNhgtbC6s-30" value="+ method(type): type" style="text;strokeColor=none;fillColor=none;align=left;verticalAlign=top;spacingLeft=4;spacingRight=4;overflow=hidden;rotatable=0;points=[[0,0.5],[1,0.5]];portConstraint=eastwest;whiteSpace=wrap;html=1;" vertex="1" parent="l93nlvmvGtReNhgtbC6s-27">
          <mxGeometry y="60" width="160" height="26" as="geometry" />
        </mxCell>
        <mxCell id="l93nlvmvGtReNhgtbC6s-31" value="" style="endArrow=classic;html=1;rounded=0;dashed=1;exitX=0.5;exitY=0;exitDx=0;exitDy=0;entryX=0.372;entryY=0.996;entryDx=0;entryDy=0;entryPerimeter=0;" edge="1" parent="1" source="l93nlvmvGtReNhgtbC6s-27" target="l93nlvmvGtReNhgtbC6s-25">
          <mxGeometry width="50" height="50" relative="1" as="geometry">
            <mxPoint x="70" y="470" as="sourcePoint" />
            <mxPoint x="320" y="420" as="targetPoint" />
          </mxGeometry>
        </mxCell>
        <mxCell id="l93nlvmvGtReNhgtbC6s-32" value="securityGroupManager" style="swimlane;fontStyle=1;align=center;verticalAlign=top;childLayout=stackLayout;horizontal=1;startSize=26;horizontalStack=0;resizeParent=1;resizeParentMax=0;resizeLast=0;collapsible=1;marginBottom=0;whiteSpace=wrap;html=1;" vertex="1" parent="1">
          <mxGeometry x="390" y="632" width="160" height="86" as="geometry" />
        </mxCell>
        <mxCell id="l93nlvmvGtReNhgtbC6s-33" value="+ sgid" style="text;strokeColor=none;fillColor=none;align=left;verticalAlign=top;spacingLeft=4;spacingRight=4;overflow=hidden;rotatable=0;points=[[0,0.5],[1,0.5]];portConstraint=eastwest;whiteSpace=wrap;html=1;" vertex="1" parent="l93nlvmvGtReNhgtbC6s-32">
          <mxGeometry y="26" width="160" height="26" as="geometry" />
        </mxCell>
        <mxCell id="l93nlvmvGtReNhgtbC6s-34" value="" style="line;strokeWidth=1;fillColor=none;align=left;verticalAlign=middle;spacingTop=-1;spacingLeft=3;spacingRight=3;rotatable=0;labelPosition=right;points=[];portConstraint=eastwest;strokeColor=inherit;" vertex="1" parent="l93nlvmvGtReNhgtbC6s-32">
          <mxGeometry y="52" width="160" height="8" as="geometry" />
        </mxCell>
        <mxCell id="l93nlvmvGtReNhgtbC6s-35" value="+ method(type): type" style="text;strokeColor=none;fillColor=none;align=left;verticalAlign=top;spacingLeft=4;spacingRight=4;overflow=hidden;rotatable=0;points=[[0,0.5],[1,0.5]];portConstraint=eastwest;whiteSpace=wrap;html=1;" vertex="1" parent="l93nlvmvGtReNhgtbC6s-32">
          <mxGeometry y="60" width="160" height="26" as="geometry" />
        </mxCell>
        <mxCell id="l93nlvmvGtReNhgtbC6s-36" value="" style="endArrow=classic;html=1;rounded=0;dashed=1;exitX=0.5;exitY=0;exitDx=0;exitDy=0;entryX=0.679;entryY=1.112;entryDx=0;entryDy=0;entryPerimeter=0;" edge="1" parent="1" source="l93nlvmvGtReNhgtbC6s-32" target="l93nlvmvGtReNhgtbC6s-25">
          <mxGeometry width="50" height="50" relative="1" as="geometry">
            <mxPoint x="240" y="470" as="sourcePoint" />
            <mxPoint x="340" y="420" as="targetPoint" />
          </mxGeometry>
        </mxCell>
        <mxCell id="l93nlvmvGtReNhgtbC6s-37" value="routeManager" style="swimlane;fontStyle=1;align=center;verticalAlign=top;childLayout=stackLayout;horizontal=1;startSize=26;horizontalStack=0;resizeParent=1;resizeParentMax=0;resizeLast=0;collapsible=1;marginBottom=0;whiteSpace=wrap;html=1;" vertex="1" parent="1">
          <mxGeometry x="50" y="500" width="160" height="86" as="geometry" />
        </mxCell>
        <mxCell id="l93nlvmvGtReNhgtbC6s-38" value="+&amp;nbsp;" style="text;strokeColor=none;fillColor=none;align=left;verticalAlign=top;spacingLeft=4;spacingRight=4;overflow=hidden;rotatable=0;points=[[0,0.5],[1,0.5]];portConstraint=eastwest;whiteSpace=wrap;html=1;" vertex="1" parent="l93nlvmvGtReNhgtbC6s-37">
          <mxGeometry y="26" width="160" height="26" as="geometry" />
        </mxCell>
        <mxCell id="l93nlvmvGtReNhgtbC6s-39" value="" style="line;strokeWidth=1;fillColor=none;align=left;verticalAlign=middle;spacingTop=-1;spacingLeft=3;spacingRight=3;rotatable=0;labelPosition=right;points=[];portConstraint=eastwest;strokeColor=inherit;" vertex="1" parent="l93nlvmvGtReNhgtbC6s-37">
          <mxGeometry y="52" width="160" height="8" as="geometry" />
        </mxCell>
        <mxCell id="l93nlvmvGtReNhgtbC6s-40" value="+ method(type): type" style="text;strokeColor=none;fillColor=none;align=left;verticalAlign=top;spacingLeft=4;spacingRight=4;overflow=hidden;rotatable=0;points=[[0,0.5],[1,0.5]];portConstraint=eastwest;whiteSpace=wrap;html=1;" vertex="1" parent="l93nlvmvGtReNhgtbC6s-37">
          <mxGeometry y="60" width="160" height="26" as="geometry" />
        </mxCell>
        <mxCell id="l93nlvmvGtReNhgtbC6s-41" value="" style="endArrow=classic;html=1;rounded=0;dashed=1;exitX=0.25;exitY=0;exitDx=0;exitDy=0;entryX=0.296;entryY=0.998;entryDx=0;entryDy=0;entryPerimeter=0;" edge="1" parent="1" source="l93nlvmvGtReNhgtbC6s-37" target="l93nlvmvGtReNhgtbC6s-20">
          <mxGeometry width="50" height="50" relative="1" as="geometry">
            <mxPoint x="270" y="642" as="sourcePoint" />
            <mxPoint x="306" y="449" as="targetPoint" />
          </mxGeometry>
        </mxCell>
        <mxCell id="l93nlvmvGtReNhgtbC6s-42" value="" style="endArrow=classic;html=1;rounded=0;dashed=1;exitX=0.75;exitY=0;exitDx=0;exitDy=0;entryX=0;entryY=0.5;entryDx=0;entryDy=0;" edge="1" parent="1" source="l93nlvmvGtReNhgtbC6s-37" target="l93nlvmvGtReNhgtbC6s-25">
          <mxGeometry width="50" height="50" relative="1" as="geometry">
            <mxPoint x="100" y="510" as="sourcePoint" />
            <mxPoint x="57" y="426" as="targetPoint" />
          </mxGeometry>
        </mxCell>
        <mxCell id="l93nlvmvGtReNhgtbC6s-43" value="firewall" style="swimlane;fontStyle=1;align=center;verticalAlign=top;childLayout=stackLayout;horizontal=1;startSize=26;horizontalStack=0;resizeParent=1;resizeParentMax=0;resizeLast=0;collapsible=1;marginBottom=0;whiteSpace=wrap;html=1;" vertex="1" parent="1">
          <mxGeometry x="460" y="330" width="160" height="86" as="geometry" />
        </mxCell>
        <mxCell id="l93nlvmvGtReNhgtbC6s-44" value="+ firewall id" style="text;strokeColor=none;fillColor=none;align=left;verticalAlign=top;spacingLeft=4;spacingRight=4;overflow=hidden;rotatable=0;points=[[0,0.5],[1,0.5]];portConstraint=eastwest;whiteSpace=wrap;html=1;" vertex="1" parent="l93nlvmvGtReNhgtbC6s-43">
          <mxGeometry y="26" width="160" height="26" as="geometry" />
        </mxCell>
        <mxCell id="l93nlvmvGtReNhgtbC6s-45" value="" style="line;strokeWidth=1;fillColor=none;align=left;verticalAlign=middle;spacingTop=-1;spacingLeft=3;spacingRight=3;rotatable=0;labelPosition=right;points=[];portConstraint=eastwest;strokeColor=inherit;" vertex="1" parent="l93nlvmvGtReNhgtbC6s-43">
          <mxGeometry y="52" width="160" height="8" as="geometry" />
        </mxCell>
        <mxCell id="l93nlvmvGtReNhgtbC6s-46" value="+ method(type): type" style="text;strokeColor=none;fillColor=none;align=left;verticalAlign=top;spacingLeft=4;spacingRight=4;overflow=hidden;rotatable=0;points=[[0,0.5],[1,0.5]];portConstraint=eastwest;whiteSpace=wrap;html=1;" vertex="1" parent="l93nlvmvGtReNhgtbC6s-43">
          <mxGeometry y="60" width="160" height="26" as="geometry" />
        </mxCell>
        <mxCell id="l93nlvmvGtReNhgtbC6s-47" value="" style="endArrow=classic;html=1;rounded=0;entryX=0.59;entryY=1.09;entryDx=0;entryDy=0;dashed=1;exitX=0.5;exitY=0;exitDx=0;exitDy=0;entryPerimeter=0;" edge="1" parent="1" source="l93nlvmvGtReNhgtbC6s-43" target="l93nlvmvGtReNhgtbC6s-16">
          <mxGeometry width="50" height="50" relative="1" as="geometry">
            <mxPoint x="330" y="340" as="sourcePoint" />
            <mxPoint x="282" y="300" as="targetPoint" />
          </mxGeometry>
        </mxCell>
        <mxCell id="l93nlvmvGtReNhgtbC6s-48" value="underlayAcl&lt;br&gt;" style="swimlane;fontStyle=1;align=center;verticalAlign=top;childLayout=stackLayout;horizontal=1;startSize=26;horizontalStack=0;resizeParent=1;resizeParentMax=0;resizeLast=0;collapsible=1;marginBottom=0;whiteSpace=wrap;html=1;" vertex="1" parent="1">
          <mxGeometry x="650" y="330" width="160" height="86" as="geometry" />
        </mxCell>
        <mxCell id="l93nlvmvGtReNhgtbC6s-49" value="+ underlayAcl id" style="text;strokeColor=none;fillColor=none;align=left;verticalAlign=top;spacingLeft=4;spacingRight=4;overflow=hidden;rotatable=0;points=[[0,0.5],[1,0.5]];portConstraint=eastwest;whiteSpace=wrap;html=1;" vertex="1" parent="l93nlvmvGtReNhgtbC6s-48">
          <mxGeometry y="26" width="160" height="26" as="geometry" />
        </mxCell>
        <mxCell id="l93nlvmvGtReNhgtbC6s-50" value="" style="line;strokeWidth=1;fillColor=none;align=left;verticalAlign=middle;spacingTop=-1;spacingLeft=3;spacingRight=3;rotatable=0;labelPosition=right;points=[];portConstraint=eastwest;strokeColor=inherit;" vertex="1" parent="l93nlvmvGtReNhgtbC6s-48">
          <mxGeometry y="52" width="160" height="8" as="geometry" />
        </mxCell>
        <mxCell id="l93nlvmvGtReNhgtbC6s-51" value="+ method(type): type" style="text;strokeColor=none;fillColor=none;align=left;verticalAlign=top;spacingLeft=4;spacingRight=4;overflow=hidden;rotatable=0;points=[[0,0.5],[1,0.5]];portConstraint=eastwest;whiteSpace=wrap;html=1;" vertex="1" parent="l93nlvmvGtReNhgtbC6s-48">
          <mxGeometry y="60" width="160" height="26" as="geometry" />
        </mxCell>
        <mxCell id="l93nlvmvGtReNhgtbC6s-52" value="" style="endArrow=classic;html=1;rounded=0;entryX=0.907;entryY=1.071;entryDx=0;entryDy=0;dashed=1;exitX=0.5;exitY=0;exitDx=0;exitDy=0;entryPerimeter=0;" edge="1" parent="1" source="l93nlvmvGtReNhgtbC6s-48" target="l93nlvmvGtReNhgtbC6s-16">
          <mxGeometry width="50" height="50" relative="1" as="geometry">
            <mxPoint x="550" y="340" as="sourcePoint" />
            <mxPoint x="314" y="283" as="targetPoint" />
          </mxGeometry>
        </mxCell>
      </root>
    </mxGraphModel>
  </diagram>
</mxfile>
